<?xml version="1.0" standalone="no"?>
<!DOCTYPE svg PUBLIC "-//W3C//DTD SVG 20010904//EN"
 "http://www.w3.org/TR/2001/REC-SVG-20010904/DTD/svg10.dtd">
<svg version="1.0" xmlns="http://www.w3.org/2000/svg"
 width="133.000000pt" height="133.000000pt" viewBox="0 0 133.000000 133.000000"
 preserveAspectRatio="xMidYMid meet">

<g transform="translate(0.000000,133.000000) scale(0.100000,-0.100000)"
fill="#000000" stroke="none">
<path d="M119 1311 l-24 -19 -3 -515 -3 -515 23 -25 c25 -27 514 -237 553
-237 39 0 528 210 553 237 l23 25 -3 515 -3 515 -24 19 c-22 18 -46 19 -546
19 -500 0 -524 -1 -546 -19z m918 -175 c25 -21 28 -31 31 -100 l4 -76 -40 0
-41 0 -3 63 c-3 62 -3 62 -33 62 l-30 0 0 -185 0 -185 33 -3 32 -3 0 70 0 71
40 0 40 0 0 -70 c0 -74 -17 -123 -45 -134 -9 -3 -41 -6 -70 -6 -110 0 -115 11
-115 265 l0 197 29 29 c25 25 37 29 85 29 43 0 61 -5 83 -24z m-607 -21 c0
-35 0 -35 -45 -35 l-45 0 0 -70 0 -70 45 0 c45 0 45 0 45 -35 0 -35 0 -35 -45
-35 l-45 0 0 -80 0 -80 45 0 c45 0 45 0 45 -35 l0 -35 -85 0 -85 0 0 255 0
255 85 0 85 0 0 -35z m231 16 c22 -17 24 -29 27 -116 2 -52 1 -107 -2 -121
-11 -43 -41 -64 -91 -64 l-45 0 0 -95 0 -95 -40 0 -40 0 0 255 0 255 84 0 c68
0 88 -4 107 -19z m139 -237 l0 -255 -37 3 -38 3 -3 253 -2 252 40 0 40 0 0
-256z m-411 -383 c23 -15 -5 -44 -29 -31 -10 6 -26 7 -34 4 -22 -8 -31 -51
-16 -69 16 -20 60 -20 60 0 0 8 -7 15 -15 15 -8 0 -15 7 -15 16 0 11 8 14 33
12 29 -3 32 -6 32 -38 0 -28 -5 -37 -28 -48 -82 -39 -156 60 -92 123 25 26 76
33 104 16z m166 -53 c15 -35 29 -69 32 -75 6 -16 -33 -18 -42 -3 -3 6 -22 10
-41 10 -19 0 -34 -4 -34 -10 0 -5 -9 -10 -21 -10 -23 0 -22 10 17 98 32 73 53
71 89 -10z m113 37 c6 -14 16 -25 21 -25 5 0 16 11 25 25 9 14 25 25 36 25 18
0 20 -7 20 -80 0 -73 -2 -80 -20 -80 -17 0 -20 7 -20 48 l-1 47 -17 -27 c-9
-16 -19 -28 -22 -28 -3 0 -13 12 -22 28 l-17 27 -1 -47 c0 -41 -3 -48 -20 -48
-18 0 -20 7 -20 80 0 77 1 80 23 80 16 0 28 -9 35 -25z m252 5 c0 -17 -7 -20
-40 -20 -22 0 -40 -4 -40 -10 0 -5 18 -10 40 -10 53 0 56 -27 3 -32 -56 -5
-55 -28 2 -28 39 0 46 -3 43 -17 -3 -15 -14 -18 -63 -18 l-60 0 -3 78 -3 77
61 0 c53 0 60 -2 60 -20z m129 11 c8 -5 11 -16 8 -25 -6 -14 -11 -15 -28 -6
-15 8 -24 9 -32 1 -7 -7 -5 -12 9 -16 54 -18 64 -25 64 -50 0 -15 -9 -31 -25
-41 -22 -14 -32 -15 -65 -5 -28 8 -38 16 -34 26 5 11 16 13 45 9 45 -8 54 10
12 21 -16 4 -34 11 -40 17 -16 13 -17 50 -1 66 14 14 67 16 87 3z m-189 -335
c0 -3 -44 -19 -98 -37 l-98 -32 -97 32 c-53 18 -97 35 -97 37 0 2 88 4 195 4
107 0 195 -2 195 -4z"/>
<path d="M550 989 l0 -90 28 3 c27 3 27 3 30 91 l3 87 -31 0 -30 0 0 -91z"/>
<path d="M496 445 c-3 -9 0 -15 9 -15 16 0 20 16 6 24 -5 3 -11 -1 -15 -9z"/>
</g>
</svg>
